<?xml version="1.0" encoding="utf-8"?>
<!-- Generator: Adobe Illustrator 22.0.1, SVG Export Plug-In . SVG Version: 6.00 Build 0)  -->
<svg version="1.1" id="Layer_1" xmlns="http://www.w3.org/2000/svg" xmlns:xlink="http://www.w3.org/1999/xlink" x="0px" y="0px"
	 width="51px" height="45.4px" viewBox="0 0 51 45.4" style="enable-background:new 0 0 51 45.4;" xml:space="preserve">
<style type="text/css">
	.st0{fill:#FFDA30;}
	.st1{fill:none;stroke:#000000;stroke-linecap:round;stroke-linejoin:round;stroke-miterlimit:10;}
</style>
<g>
	<path class="st0" d="M1.2,14.2c-1-0.5-1-1.3,0-1.8L23.7,0.9c1-0.5,2.6-0.5,3.6,0l22.5,11.5c1,0.5,1,1.3,0,1.8L27.3,25.7
		c-1,0.5-2.6,0.5-3.6,0L1.2,14.2z"/>
	<path class="st1" d="M1.2,14.2c-1-0.5-1-1.3,0-1.8L23.7,0.9c1-0.5,2.6-0.5,3.6,0l22.5,11.5c1,0.5,1,1.3,0,1.8L27.3,25.7
		c-1,0.5-2.6,0.5-3.6,0L1.2,14.2z"/>
	<line class="st1" x1="38.9" y1="20.6" x2="38.9" y2="38.9"/>
	<path class="st1" d="M38.9,38.9c1.7,0,3,1.4,3,3c0,1.7-1.4,3-3,3c-1.7,0-3-1.4-3-3C35.9,40.2,37.2,38.9,38.9,38.9z"/>
	<line class="st1" x1="9.6" y1="13.6" x2="13.6" y2="11.5"/>
	<line class="st1" x1="13.6" y1="15.6" x2="17.7" y2="13.6"/>
	<path class="st1" d="M42.9,18.6v13.2c0,0-6.6,4-17.2,4s-17.2-4-17.2-4V18.6"/>
</g>
</svg>
